<svg xmlns="http://www.w3.org/2000/svg" viewBox="0 0 100 100">
  <defs>
    <linearGradient id="bg" x1="0%" y1="0%" x2="100%" y2="100%">
      <stop offset="0%" style="stop-color:#667eea"/>
      <stop offset="100%" style="stop-color:#764ba2"/>
    </linearGradient>
  </defs>
  <rect width="100" height="100" fill="url(#bg)" rx="10"/>
  <ellipse cx="50" cy="52" rx="30" ry="32" fill="#F0C8A0"/>
  <path d="M22 35 Q25 20 50 18 Q75 20 78 35" fill="#6B4423"/>
  <ellipse cx="20" cy="52" rx="5" ry="8" fill="#F0C8A0"/>
  <ellipse cx="80" cy="52" rx="5" ry="8" fill="#F0C8A0"/>
  <ellipse cx="38" cy="48" rx="5" ry="6" fill="white"/>
  <ellipse cx="62" cy="48" rx="5" ry="6" fill="white"/>
  <circle cx="39" cy="49" r="3" fill="#2C3E50"/>
  <circle cx="63" cy="49" r="3" fill="#2C3E50"/>
  <path d="M30 38 Q38 35 44 38" stroke="#6B4423" stroke-width="2" fill="none"/>
  <path d="M56 38 Q62 35 70 38" stroke="#6B4423" stroke-width="2" fill="none"/>
  <path d="M50 52 Q52 58 50 62" stroke="#F0C8A0" stroke-width="2" fill="none" opacity="0.8"/>
  <path d="M38 68 Q44 65 50 68 Q56 65 62 68" stroke="#6B4423" stroke-width="3" fill="none"/>
  <path d="M42 72 Q50 76 58 72" stroke="#C0392B" stroke-width="2" fill="none"/>
  <path d="M35 68 Q50 85 65 68" fill="#6B4423"/>
  <circle cx="85" cy="15" r="12" fill="white" opacity="0.9"/>
  <text x="85" y="20" text-anchor="middle" font-family="Arial Black" font-size="14" fill="#333">3</text>
</svg>